<svg width="18" height="18" viewBox="0 0 18 18" fill="none" xmlns="http://www.w3.org/2000/svg">
<path d="M10.8193 9L17.6239 2.19536C18.1254 1.69393 18.1254 0.880714 17.6239 0.376071C17.1225 -0.125357 16.3093 -0.125357 15.8046 0.376071L9 7.18071L2.19536 0.376071C1.69393 -0.125357 0.8775 -0.125357 0.376071 0.376071C-0.125357 0.8775 -0.125357 1.69393 0.376071 2.19536L7.18071 9L0.376071 15.8046C-0.125357 16.3061 -0.125357 17.1193 0.376071 17.6239C0.626786 17.8746 0.954643 18 1.28571 18C1.61679 18 1.94464 17.8746 2.19536 17.6239L9 10.8193L15.8046 17.6239C16.0554 17.8746 16.3832 18 16.7143 18C17.0454 18 17.3732 17.8746 17.6239 17.6239C18.1254 17.1225 18.1254 16.3093 17.6239 15.8046L10.8193 9Z" fill="#080808"/>
</svg>
